<svg width="24" height="14" viewBox="0 0 24 14" fill="none" xmlns="http://www.w3.org/2000/svg">
<path d="M23.171 4.7765L22 4.191V3.5C22 3.10218 21.842 2.72064 21.5607 2.43934C21.2794 2.15804 20.8978 2 20.5 2H19.5V1.5C19.5 1.10218 19.342 0.720644 19.0607 0.43934C18.7794 0.158035 18.3978 0 18 0H16.5C16.1022 0 15.7207 0.158035 15.4393 0.43934C15.158 0.720644 15 1.10218 15 1.5V5H9.00001V1.5C9.00001 1.10218 8.84197 0.720644 8.56067 0.43934C8.27936 0.158035 7.89783 0 7.50001 0H6.00001C5.60218 0 5.22065 0.158035 4.93935 0.43934C4.65804 0.720644 4.50001 1.10218 4.50001 1.5V2H3.50001C3.10218 2 2.72065 2.15804 2.43935 2.43934C2.15804 2.72064 2.00001 3.10218 2.00001 3.5V4.191L0.829008 4.7765C0.579317 4.90035 0.36931 5.09167 0.22279 5.32877C0.0762692 5.56588 -0.000906904 5.83928 8.04165e-06 6.118V7.882C-0.000906904 8.16072 0.0762692 8.43412 0.22279 8.67123C0.36931 8.90833 0.579317 9.09965 0.829008 9.2235L2.00001 9.809V10.5C2.00001 10.8978 2.15804 11.2794 2.43935 11.5607C2.72065 11.842 3.10218 12 3.50001 12H4.50001V12.5C4.50001 12.8978 4.65804 13.2794 4.93935 13.5607C5.22065 13.842 5.60218 14 6.00001 14H7.50001C7.89783 14 8.27936 13.842 8.56067 13.5607C8.84197 13.2794 9.00001 12.8978 9.00001 12.5V9H15V12.5C15 12.8978 15.158 13.2794 15.4393 13.5607C15.7207 13.842 16.1022 14 16.5 14H18C18.3978 14 18.7794 13.842 19.0607 13.5607C19.342 13.2794 19.5 12.8978 19.5 12.5V12H20.5C20.8978 12 21.2794 11.842 21.5607 11.5607C21.842 11.2794 22 10.8978 22 10.5V9.809L23.171 9.2235C23.4207 9.09965 23.6307 8.90833 23.7772 8.67123C23.9237 8.43412 24.0009 8.16072 24 7.882V6.118C24.0009 5.83928 23.9237 5.56588 23.7772 5.32877C23.6307 5.09167 23.4207 4.90035 23.171 4.7765ZM1.27651 8.329C1.19325 8.28778 1.12321 8.22405 1.07433 8.14504C1.02546 8.06603 0.999711 7.9749 1.00001 7.882V6.118C0.999711 6.0251 1.02546 5.93397 1.07433 5.85496C1.12321 5.77595 1.19325 5.71222 1.27651 5.671L2.00001 5.309V8.691L1.27651 8.329ZM3.50001 11C3.3674 11 3.24022 10.9473 3.14645 10.8536C3.05269 10.7598 3.00001 10.6326 3.00001 10.5V3.5C3.00001 3.36739 3.05269 3.24021 3.14645 3.14645C3.24022 3.05268 3.3674 3 3.50001 3H4.50001V11H3.50001ZM8.00001 12.5C8.00001 12.6326 7.94733 12.7598 7.85356 12.8536C7.75979 12.9473 7.63262 13 7.50001 13H6.00001C5.8674 13 5.74022 12.9473 5.64645 12.8536C5.55269 12.7598 5.50001 12.6326 5.50001 12.5V1.5C5.50001 1.36739 5.55269 1.24021 5.64645 1.14645C5.74022 1.05268 5.8674 1 6.00001 1H7.50001C7.63262 1 7.75979 1.05268 7.85356 1.14645C7.94733 1.24021 8.00001 1.36739 8.00001 1.5V12.5ZM9.00001 8V6H15V8H9.00001ZM18.5 12.5C18.5 12.6326 18.4473 12.7598 18.3536 12.8536C18.2598 12.9473 18.1326 13 18 13H16.5C16.3674 13 16.2402 12.9473 16.1465 12.8536C16.0527 12.7598 16 12.6326 16 12.5V1.5C16 1.36739 16.0527 1.24021 16.1465 1.14645C16.2402 1.05268 16.3674 1 16.5 1H18C18.1326 1 18.2598 1.05268 18.3536 1.14645C18.4473 1.24021 18.5 1.36739 18.5 1.5V12.5ZM21 10.5C21 10.6326 20.9473 10.7598 20.8536 10.8536C20.7598 10.9473 20.6326 11 20.5 11H19.5V3H20.5C20.6326 3 20.7598 3.05268 20.8536 3.14645C20.9473 3.24021 21 3.36739 21 3.5V10.5ZM23 7.882C23.0003 7.9749 22.9746 8.06603 22.9257 8.14504C22.8768 8.22405 22.8068 8.28778 22.7235 8.329L22 8.691V5.309L22.7235 5.671C22.8068 5.71222 22.8768 5.77595 22.9257 5.85496C22.9746 5.93397 23.0003 6.0251 23 6.118V7.882Z" fill="#323135"/>
</svg>
