<svg width="18" height="22" viewBox="0 0 18 22" fill="none" xmlns="http://www.w3.org/2000/svg">
<path d="M13.3753 0.0109944C13.3285 -0.0412556 11.6441 0.0316194 10.1784 1.62249C8.71264 3.21199 8.93814 5.03524 8.97114 5.08199C9.00414 5.12874 11.0611 5.20162 12.3743 3.35224C13.6874 1.50287 13.422 0.0646194 13.3753 0.0109944ZM17.932 16.1439C17.866 16.0119 14.7351 14.4471 15.0266 11.4386C15.3181 8.43012 17.3298 7.60374 17.3614 7.51437C17.393 7.42499 16.5405 6.42812 15.6371 5.92349C14.9737 5.56806 14.2397 5.36424 13.488 5.32674C13.3395 5.32262 12.8239 5.19612 11.7638 5.48624C11.0653 5.67737 9.49089 6.29612 9.05777 6.32087C8.62327 6.34562 7.33077 5.60312 5.94064 5.40649C5.05102 5.23462 4.10777 5.58662 3.43264 5.85749C2.75889 6.127 1.47739 6.89424 0.580895 8.93337C-0.315605 10.9711 0.15327 14.1996 0.48877 15.2034C0.82427 16.2071 1.34814 17.8489 2.23914 19.0479C3.03114 20.4009 4.08165 21.34 4.52027 21.659C4.95889 21.978 6.19639 22.1897 7.05439 21.7511C7.74464 21.3276 8.99039 21.0842 9.48264 21.1021C9.97352 21.12 10.9415 21.3139 11.9329 21.8432C12.718 22.1141 13.4605 22.0014 14.2044 21.6989C14.9483 21.395 16.0249 20.2427 17.2816 17.9066C17.7583 16.8204 17.9751 16.2328 17.932 16.1439Z" fill="black"/>
<path d="M13.3753 0.0109944C13.3285 -0.0412556 11.6441 0.0316194 10.1784 1.62249C8.71264 3.21199 8.93814 5.03524 8.97114 5.08199C9.00414 5.12874 11.0611 5.20162 12.3743 3.35224C13.6874 1.50287 13.422 0.0646194 13.3753 0.0109944ZM17.932 16.1439C17.866 16.0119 14.7351 14.4471 15.0266 11.4386C15.3181 8.43012 17.3298 7.60374 17.3614 7.51437C17.393 7.42499 16.5405 6.42812 15.6371 5.92349C14.9737 5.56806 14.2397 5.36424 13.488 5.32674C13.3395 5.32262 12.8239 5.19612 11.7638 5.48624C11.0653 5.67737 9.49089 6.29612 9.05777 6.32087C8.62327 6.34562 7.33077 5.60312 5.94064 5.40649C5.05102 5.23462 4.10777 5.58662 3.43264 5.85749C2.75889 6.127 1.47739 6.89424 0.580895 8.93337C-0.315605 10.9711 0.15327 14.1996 0.48877 15.2034C0.82427 16.2071 1.34814 17.8489 2.23914 19.0479C3.03114 20.4009 4.08165 21.34 4.52027 21.659C4.95889 21.978 6.19639 22.1897 7.05439 21.7511C7.74464 21.3276 8.99039 21.0842 9.48264 21.1021C9.97352 21.12 10.9415 21.3139 11.9329 21.8432C12.718 22.1141 13.4605 22.0014 14.2044 21.6989C14.9483 21.395 16.0249 20.2427 17.2816 17.9066C17.7583 16.8204 17.9751 16.2328 17.932 16.1439Z" fill="black"/>
</svg>
