<svg width="22" height="22" viewBox="0 0 22 22" fill="none" xmlns="http://www.w3.org/2000/svg">
<path d="M21.125 11.0001C21.125 8.99762 20.5313 7.04014 19.4188 5.37514C18.3064 3.71014 16.7252 2.41239 14.8753 1.64597C13.0253 0.879554 10.9896 0.678897 9.02564 1.06937C7.06164 1.45984 5.25753 2.42391 3.84142 3.83967C2.42531 5.25544 1.46081 7.05931 1.06985 9.02321C0.6789 10.9871 0.87906 13.0228 1.64502 14.873C2.41099 16.7231 3.70836 18.3046 5.37309 19.4175C7.03782 20.5303 8.99514 21.1245 10.9976 21.125L11 21.1251L11.0024 21.125C13.6864 21.1213 16.2593 20.0534 18.157 18.1553C20.0546 16.2572 21.122 13.684 21.125 11.0001ZM12.125 18.7934V13.6251H14C14.2984 13.6251 14.5845 13.5066 14.7955 13.2956C15.0065 13.0847 15.125 12.7985 15.125 12.5001C15.125 12.2018 15.0065 11.9156 14.7955 11.7046C14.5845 11.4937 14.2984 11.3751 14 11.3751H12.125V9.50014C12.1253 9.20188 12.244 8.91593 12.4549 8.70503C12.6658 8.49412 12.9517 8.37549 13.25 8.37514H14.75C15.0484 8.37514 15.3345 8.25662 15.5455 8.04564C15.7565 7.83466 15.875 7.54851 15.875 7.25014C15.875 6.95178 15.7565 6.66563 15.5455 6.45465C15.3345 6.24367 15.0484 6.12514 14.75 6.12514H13.25C12.3552 6.12615 11.4973 6.48205 10.8646 7.11477C10.2319 7.74749 9.87601 8.60535 9.875 9.50014V11.3751H8C7.70164 11.3751 7.41549 11.4937 7.20451 11.7046C6.99353 11.9156 6.875 12.2018 6.875 12.5001C6.875 12.7985 6.99353 13.0847 7.20451 13.2956C7.41549 13.5066 7.70164 13.6251 8 13.6251H9.875V18.7934C7.90447 18.509 6.1148 17.4887 4.86617 15.938C3.61755 14.3872 3.00265 12.4211 3.14522 10.4352C3.2878 8.44936 4.17727 6.59123 5.63463 5.23475C7.09198 3.87828 9.00905 3.12416 11 3.12416C12.991 3.12416 14.908 3.87828 16.3654 5.23475C17.8227 6.59123 18.7122 8.44936 18.8548 10.4352C18.9974 12.4211 18.3825 14.3872 17.1338 15.938C15.8852 17.4887 14.0955 18.509 12.125 18.7934Z" fill="#323135"/>
</svg>
