<svg width="25" height="24" viewBox="0 0 25 24" fill="none" xmlns="http://www.w3.org/2000/svg">
<g clip-path="url(#clip0_184_7359)">
<path d="M17 12C17 14.2091 15.2091 16 13 16C10.7909 16 9 14.2091 9 12C9 9.79086 10.7909 8 13 8C15.2091 8 17 9.79086 17 12ZM15 12C15 10.8954 14.1046 10 13 10C11.8954 10 11 10.8954 11 12C11 13.1046 11.8954 14 13 14C14.1046 14 15 13.1046 15 12Z" fill="#323135"/>
<path d="M1 6.5C1 5.11928 2.11928 4 3.5 4H22.5C23.8808 4 25 5.11928 25 6.5V17.5C25 18.8808 23.8808 20 22.5 20H3.5C2.11928 20 1 18.8808 1 17.5V6.5ZM3.5 6C3.22386 6 3 6.22386 3 6.5V8H4C4.55228 8 5 7.55228 5 7V6H3.5ZM3 17.5C3 17.7761 3.22386 18 3.5 18H5V17C5 16.4477 4.55228 16 4 16H3V17.5ZM7 17V18H19V17C19 15.3431 20.3432 14 22 14H23V10H22C20.3432 10 19 8.65686 19 7V6H7V7C7 8.65686 5.65686 10 4 10H3V14H4C5.65686 14 7 15.3431 7 17ZM21 18H22.5C22.7762 18 23 17.7761 23 17.5V16H22C21.4478 16 21 16.4477 21 17V18ZM23 8V6.5C23 6.22386 22.7762 6 22.5 6H21V7C21 7.55228 21.4478 8 22 8H23Z" fill="#323135"/>
</g>
<defs>
<clipPath id="clip0_184_7359">
<rect width="24" height="24" fill="white" transform="translate(0.5)"/>
</clipPath>
</defs>
</svg>
