<svg width="44" height="40" viewBox="0 0 44 40" fill="none" xmlns="http://www.w3.org/2000/svg">
<path opacity="0.2" d="M42.0001 40H2.00005C1.65 39.9979 1.30664 39.904 1.00427 39.7276C0.701907 39.5512 0.451137 39.2985 0.277024 38.9948C0.102911 38.6911 0.0115554 38.3471 0.0120873 37.997C0.0126192 37.6469 0.10502 37.3032 0.280054 37C1.92755 34.15 4.00005 26.9525 4.00005 18C4.00005 13.2261 5.89648 8.64773 9.27213 5.27208C12.6478 1.89642 17.2262 0 22.0001 0C26.774 0 31.3523 1.89642 34.728 5.27208C38.1036 8.64773 40.0001 13.2261 40.0001 18C40.0001 26.955 42.0751 34.15 43.7251 37C43.9003 37.3035 43.9927 37.6478 43.993 37.9982C43.9933 38.3487 43.9015 38.6931 43.7268 38.997C43.5521 39.3008 43.3006 39.5534 42.9976 39.7294C42.6945 39.9055 42.3505 39.9988 42.0001 40Z" fill="#938F9C"/>
</svg>
