<svg width="24" height="22" viewBox="0 0 24 22" fill="none" xmlns="http://www.w3.org/2000/svg">
<path d="M23.25 0.875H0.75C0.336 0.875 0 1.211 0 1.625V20.375C0 20.789 0.336 21.125 0.75 21.125H23.25C23.664 21.125 24 20.789 24 20.375V1.625C24 1.211 23.664 0.875 23.25 0.875ZM22.5 2.375V5.375H1.5V2.375H22.5ZM1.5 19.625V6.875H22.5V19.625H1.5Z" fill="#323135"/>
<path d="M3.75 4.625C3.945 4.625 4.14 4.54625 4.27875 4.40375C4.42125 4.265 4.5 4.07 4.5 3.875C4.5 3.68 4.42125 3.485 4.27875 3.3425C4.00125 3.065 3.49875 3.065 3.2175 3.34625C3.07875 3.485 3 3.67625 3 3.875C3 4.07375 3.07875 4.265 3.22125 4.4075C3.36 4.54625 3.55462 4.625 3.75 4.625Z" fill="#323135"/>
<path d="M6 4.625C6.195 4.625 6.39 4.54625 6.5325 4.40375C6.67125 4.265 6.75 4.07 6.75 3.875C6.75 3.68 6.67125 3.485 6.52875 3.3425C6.25125 3.065 5.74875 3.065 5.4675 3.34625C5.32875 3.485 5.25 3.68 5.25 3.875C5.25 4.07 5.32875 4.265 5.47125 4.4075C5.61 4.54625 5.80462 4.625 6 4.625Z" fill="#323135"/>
<path d="M8.25 4.625C8.44875 4.625 8.64 4.54625 8.77875 4.40375C8.92125 4.265 9 4.07375 9 3.875C9 3.68 8.92125 3.485 8.77875 3.3425C8.50125 3.065 7.99875 3.065 7.7175 3.34625C7.57875 3.485 7.5 3.68 7.5 3.875C7.5 4.07375 7.57875 4.265 7.72125 4.40375C7.86 4.54625 8.05462 4.625 8.25 4.625Z" fill="#323135"/>
<path d="M11.625 8.375H3.75C3.336 8.375 3 8.711 3 9.125C3 9.539 3.336 9.875 3.75 9.875H11.625C12.039 9.875 12.375 9.539 12.375 9.125C12.375 8.711 12.039 8.375 11.625 8.375Z" fill="#323135"/>
<path d="M11.625 11.375H3.75C3.336 11.375 3 11.711 3 12.125C3 12.539 3.336 12.875 3.75 12.875H11.625C12.039 12.875 12.375 12.539 12.375 12.125C12.375 11.711 12.039 11.375 11.625 11.375Z" fill="#323135"/>
<path d="M11.625 14.375H3.75C3.336 14.375 3 14.711 3 15.125C3 15.539 3.336 15.875 3.75 15.875H11.625C12.039 15.875 12.375 15.539 12.375 15.125C12.375 14.711 12.039 14.375 11.625 14.375Z" fill="#323135"/>
<path d="M20.25 8.375H14.625C14.211 8.375 13.875 8.711 13.875 9.125V15.125C13.875 15.539 14.211 15.875 14.625 15.875H20.25C20.664 15.875 21 15.539 21 15.125V9.125C21 8.711 20.664 8.375 20.25 8.375ZM19.5 14.375H15.375V9.875H19.5V14.375Z" fill="#323135"/>
</svg>
